<svg xmlns="http://www.w3.org/2000/svg" viewBox="0 0 512 512" width="512" height="512"> 

<path d="M150,480 Q80,420 100,300 Q120,180 200,160 L220,140 L180,150 Q110,180 80,300 Q60,440 150,480 Z" fill="#111111"/> <path d="M220,140 L210,120 L240,135 L220,140 Z" fill="#FF0000"/> <path d="M120,480 C120,350 392,350 392,480 Z" fill="#111111"/>

<ellipse cx="256" cy="260" rx="160" ry="140" fill="#111111"/>

<path d="M160,120 Q130,60 190,50 Q170,90 180,130 Z" fill="#FF0000"/> <path d="M352,120 Q382,60 322,50 Q342,90 332,130 Z" fill="#FF0000"/>

<path d="M120,200 L60,100 L200,140 Z" fill="#111111"/> <path d="M120,200 L80,120 L180,150 Z" fill="#FF0000"/> <path d="M392,200 L452,100 L312,140 Z" fill="#111111"/> <path d="M392,200 L432,120 L332,150 Z" fill="#FF0000"/> <ellipse cx="190" cy="240" rx="45" ry="45" fill="#FF0000"/> <ellipse cx="190" cy="240" rx="12" ry="30" fill="#000000"/> <circle cx="175" cy="225" r="10" fill="#FFFFFF"/> <ellipse cx="322" cy="240" rx="45" ry="45" fill="#FF0000"/> <ellipse cx="322" cy="240" rx="12" ry="30" fill="#000000"/> <circle cx="307" cy="225" r="10" fill="#FFFFFF"/> <path d="M240,290 L272,290 L256,315 Z" fill="#FF0000"/>

 </svg>